Patient4_TMGait_0pt7_02_left_45_EMG.mot
version=1
nRows=13
nColumns=33
inDegrees=no
endheader
time	1LAddLong	2LGlutMax	3LGlutMed	4LIliopsoas	5LSemiMemb	6LBicFemLong	7LRecFem	8LVastMed	9LVastLat	10LGasMed	11LTibAnt	12lTibPost	13LPeroneusLong	14LSol	15LExtDigLong	16LFlexDigLong	17RAddLong	18RGlutMax	19RGlutMed	20RIliopsoas	21RSemiMemb	22RBicFemLong	23RRecFem	24RVastMed	25RVastLat	26RGasMed	27RTibAnt	28RTibPost	29RPeroneusLong	30RSol	31RExtDigLong	32RFlexDigLong
52.703	0.01297	-0.26077	-0.02121	0.011444	0.001068	-0.011139	-0.021515	0.005035	0.028992	-0.007935	0.035858	0.010681	-0.019073	0.031128	-0.083313	0.010681	0.000763	0.017242	-0.15656	0.13062	-0.006714	-0.10559	-0.21668	-0.045624	-0.19089	0.018768	0.035248	-0.024109	-0.14511	-0.09079	0.005493	-0.005188
52.704	0.016327	-0.25833	-0.015717	0.008698	-0.007935	-0.001068	-0.023499	0.004272	0.033417	-0.025024	0.004272	-0.016632	0.01709	-0.018921	0.056915	0.013733	0.005188	-0.032349	-0.49393	0.30792	0.049133	-0.063324	-0.23468	0.062256	0.062714	0.019531	0.013123	-0.017242	-0.16266	0.036926	0.001678	-0.009308
52.705	0.014496	-0.24643	-0.001831	0.010071	-0.027924	-0.010223	-0.035706	0.007935	0.018921	-0.035553	-0.14725	-0.00473	0.057983	-0.042725	0.1297	-0.005035	0.000153	-0.002136	-0.47638	0.28534	-0.1886	0.023804	0.079651	0.094147	0.13825	0.019989	-0.08194	-0.013428	0.6485	-0.026855	0.004425	-0.005341
52.706	-0.001831	-0.2327	-0.013733	-0.002747	-0.043945	0.015259	-0.021973	0.011444	0.006409	-0.011139	-0.17944	-0.011902	0.017395	-0.074615	0.14725	0.005798	-0.036621	0.001221	-0.30563	0.12039	-0.31952	0.046997	0.15167	0.20416	0.071564	0.005798	-0.057678	-0.014191	0.063629	-0.078278	-0.005341	-0.005035
52.707	-0.005646	-0.22003	-0.008392	-0.001678	-0.074615	0.027924	-0.005493	0.019073	0.015259	0.018768	-0.10757	-0.007324	-0.027466	-0.12405	0.16419	0.010376	-0.028381	0.026398	-0.076447	-0.075531	-0.1059	-0.082397	0.22232	0.22812	0.014191	-0.009918	0.020599	-0.02243	-0.2652	-0.050049	0.002289	-0.009766
52.708	-0.006409	-0.16571	-0.012054	0.009613	-0.099182	-0.009003	0.001373	0.014191	0.011292	0.008392	-0.032806	-0.019684	-0.011139	-0.10376	0.21591	0.000305	-0.00824	0.060425	0.44327	-0.1593	0.003357	-0.023956	0.17197	0.18906	0.073853	-0.028992	-0.045776	-0.014801	0.22964	0.016785	0.001678	-0.014343
52.709	-0.010376	-0.1561	-0.028076	0.017548	-0.11993	-0.026855	0.002289	0.006256	0.010834	-0.03067	0.076294	-0.004272	0.019073	-0.057831	0.14069	0.00473	-0.00946	0.050659	0.27542	-0.10681	-0.014038	0.014038	0.12039	0.051117	0.062103	-0.034485	-0.10315	-0.032043	-0.027618	-0.032959	-0.002441	-0.012512
52.71	0.001984	-0.15182	-0.025024	0.009918	-0.072021	-0.056763	-0.010986	0.006561	0.018768	-0.014343	0.004883	-0.002594	0.015106	-0.060883	0.030975	-0.002136	-0.018616	0.005188	0.22492	0.012512	-0.083923	0.018616	-0.11734	-0.066071	-0.030212	-0.036469	-0.014496	-0.023956	-0.42664	0.064087	0.001526	-0.00946
52.711	0.002136	-0.16373	-0.031891	0.005188	-0.026245	-0.069885	-0.015717	0.00885	0.008698	-0.006104	0.032501	-0.016327	0.015717	-0.033722	0.18234	0.003052	0.011139	-0.006561	-0.49301	0.10208	-0.074158	0.054779	-0.20737	-0.2446	0.19684	0.019379	0.076294	-0.022125	-0.029907	0.20264	0.002441	-0.014343
52.712	0.00946	-0.13153	0.001221	0.009003	0.040741	-0.077057	-0.010986	0.008545	0.010529	-0.010986	0.027313	-0.008545	0.015564	-0.02182	0.09903	-0.004425	-0.014038	0.057373	-0.44388	-0.054932	-0.048065	0.18402	-0.04364	-0.52704	0.25635	-0.010986	0.17838	-0.000153	-0.53146	0.233	0.005341	-0.010223
52.713	0.00824	-0.15366	-0.039063	0.012054	0.069122	-0.015106	-0.034485	0.005493	0.013428	-0.013123	0.017242	-0.021515	0.028839	-0.070343	0.048523	-0.004578	-0.006561	0.07843	-0.25131	-0.14923	-0.021057	0.20905	-0.074158	-0.55939	0.54596	-0.033417	0.15091	0.004883	-0.48767	0.13138	0.010529	-0.001984
52.714	0.008545	-0.15656	-0.053253	-0.005798	0.053711	0.035095	-0.036316	0.003967	0.014343	0.046692	0.033112	0.002441	0.025177	-0.060425	0.012665	0.000305	-0.006714	-0.074158	-0.18646	0.021362	-0.005646	0.15259	-0.16129	-0.23514	0.72662	-0.03418	-0.19974	0.005341	3.7547	-0.12436	0.003357	-0.00824
52.715	0.008698	-0.13245	-0.066376	0.005341	0.019226	0.021973	-0.03952	0.005646	0.020905	0.068359	0.016327	-0.007019	0.033112	-0.1062	-0.056763	-0.009003	0.00061	-0.028687	0.000916	0.17105	0.037537	0.011597	-0.12695	-0.26443	0.83756	-0.040436	-0.1564	-0.00946	1.5544	-0.13779	0.00061	-0.007019
